<svg width="215" height="50" viewBox="0 0 215 50" fill="none" xmlns="http://www.w3.org/2000/svg">
<path d="M77.4186 13.1748H83.3401L96.6023 35.0601H90.3159L80.4199 18.3625L75.1475 27.1976H83.6645L86.2197 31.3315H72.8762L70.4834 35.0196H64.1969L77.4186 13.1748ZM181.732 35.1007H188.019L190.412 31.4126H203.755L201.2 27.2787H192.683L197.955 18.4436L207.851 35.1412H214.138L200.876 13.2559H194.954L181.732 35.1007ZM96.2374 24.158V27.0761C96.359 32.8311 99.6036 35.2628 104.633 35.1412H121.18V30.6426H104.673C101.915 30.7236 101.713 28.8188 101.631 26.9139V24.1581V21.2805C101.712 19.5783 101.915 17.633 104.673 17.6736H121.18V13.1749H104.633C99.6036 13.0534 96.3996 15.5256 96.2374 21.2401V24.158ZM159.061 17.8761H172.364C174.229 17.8761 175.162 18.6867 175.162 20.2673C175.162 21.8884 174.229 22.6585 172.364 22.6585H160.44L161.494 27.3598H171.674C173.661 27.3193 174.797 28.6973 174.959 30.6021L175.121 35.1008H180.394C180.394 35.1008 180.353 30.8858 180.232 30.0347C180.11 29.1836 179.745 26.8329 177.677 25.6982C182.543 22.4964 180.759 13.2155 173.783 13.2155H153.707V35.1007H159.061L159.061 17.8761ZM137.281 35.1007H141.946C147.705 34.9791 150.138 31.7368 150.016 26.7113V13.1748H144.744V27.8055C144.825 30.5615 142.878 30.764 141.013 30.8451H137.281H133.347C131.644 30.7641 129.697 30.5615 129.738 27.8055V13.1748H124.344V26.7518C124.222 31.7773 126.696 34.9791 132.415 35.1007H137.281ZM49.8535 22.9238C49.4074 14.737 46.6089 8.73882 42.7965 5.45607C38.6596 1.9301 30.9536 0.552113 24.9916 0.592664C19.0297 0.552113 11.3238 1.9301 7.18687 5.45607C3.37449 8.73892 0.575957 14.7371 0.129857 22.9238C-0.275758 30.6241 1.3871 39.0135 5.76732 43.7553C9.98522 48.416 18.4212 49.875 24.951 49.875C31.4807 49.9156 39.9166 48.416 44.1346 43.7553C48.5149 38.9729 50.2183 30.5835 49.8535 22.9238ZM23.572 2.65955C24.3831 2.61899 24.5858 2.61899 24.951 2.61899C25.316 2.61899 25.4782 2.61899 26.3299 2.65955L26.3705 20.5731C26.1271 20.5731 23.7749 20.5731 23.5315 20.5731C23.5315 20.5731 23.5315 2.65955 23.572 2.65955ZM3.41507 30.4618C3.17169 27.3817 2.2389 16.1553 6.70019 9.75184C8.60643 6.95542 11.4049 5.0911 14.2439 4.11844C18.1779 2.74055 22.8826 2.65945 22.8826 2.65945C21.0575 7.15818 17.2857 16.8039 16.5556 18.9518C15.6634 21.5861 14.8928 23.0856 14.1222 27.8275C13.6355 31.7182 12.7838 41.4045 12.5405 45.6194C7.26794 43.1068 4.10447 38.3245 3.41507 30.4618ZM24.9105 47.808C21.2197 47.7676 16.6773 47.4028 13.0677 45.8627C14.2845 42.6204 20.0841 28.6788 23.2882 23.2479C23.5315 23.2479 26.3299 23.2479 26.5733 23.2479C29.7368 28.6788 35.5771 42.6204 36.7939 45.8627C33.1436 47.4433 28.6417 47.7676 24.9105 47.808ZM46.4465 30.4216C45.7571 38.3246 42.5935 43.0664 37.3211 45.6197C37.0778 41.4047 36.2261 31.7185 35.7394 27.8277C34.9687 23.0454 34.1982 21.5864 33.3059 18.952C32.5759 16.804 28.804 7.15827 26.9789 2.65964C26.9789 2.65964 31.6836 2.74065 35.6176 4.11863C38.4567 5.09129 41.2551 6.99607 43.1613 9.75203C47.6226 16.1555 46.6897 27.3818 46.4465 30.4216Z" fill="#5F5F5F"/>
</svg>
