<svg width="144" height="67" viewBox="0 0 144 67" fill="none" xmlns="http://www.w3.org/2000/svg">
<rect width="143.585" height="66.5394" transform="translate(0.174805 0.000244141)" fill="white"/>
<path d="M118.642 58.1215C112.949 58.1215 107.508 56.2514 103.112 52.7628C98.7157 56.2154 93.2747 58.1215 87.5816 58.1215C81.8884 58.1215 76.4474 56.2514 72.0514 52.7628C67.6554 56.2154 62.2145 58.1215 56.5213 58.1215C50.8281 58.1215 45.3871 56.2514 40.9911 52.7628C36.5951 56.2154 31.1542 58.1215 25.461 58.1215C18.8309 58.1215 12.5973 55.604 7.87696 51.0005C3.0846 46.397 0.418169 40.2471 0.31007 33.7015C0.201972 27.12 2.6522 20.8981 7.22837 16.1148C11.7685 11.3674 17.9301 8.63412 24.5602 8.41833H24.6683H26.2537C31.6586 8.59816 36.7753 10.4683 40.9551 13.7411C45.0989 10.4683 50.2155 8.59816 55.6204 8.41833L55.7285 11.2236V8.41833H57.314C62.7189 8.59816 67.8356 10.4683 72.0154 13.7411C76.1952 10.4683 81.2758 8.59816 86.7168 8.41833H86.8249H88.4103C93.8152 8.59816 98.9319 10.4683 103.112 13.7411C107.255 10.4683 112.372 8.59816 117.813 8.41833L117.921 11.2236V8.41833H119.507C126.101 8.63412 132.262 11.3674 136.838 16.1148C141.415 20.8621 143.865 27.12 143.757 33.6655C143.649 40.2471 140.982 46.397 136.262 51.0005C131.47 55.604 125.236 58.1215 118.642 58.1215ZM107.219 48.6988C110.426 51.0365 114.39 52.4391 118.642 52.4391C129.127 52.4391 137.811 43.9874 137.955 33.6296C138.136 23.2717 129.776 14.5683 119.326 14.1727H117.957C113.958 14.3165 110.282 15.6832 107.255 17.877C110.859 22.3726 112.732 27.9112 112.66 33.7015C112.516 39.2041 110.643 44.419 107.219 48.6988ZM76.1591 48.6988C79.3661 51.0365 83.3297 52.4391 87.5816 52.4391C91.8334 52.4391 95.761 51.0365 98.9679 48.6988C95.5808 44.4549 93.6711 39.2041 93.563 33.7015C93.4549 27.9112 95.3646 22.3726 98.9679 17.877C95.9412 15.6832 92.2658 14.3165 88.2662 14.1727H86.8969C82.8973 14.3165 79.2219 15.6832 76.1952 17.877C79.7985 22.3726 81.6722 27.9112 81.6001 33.7015C81.456 39.2041 79.5462 44.419 76.1591 48.6988ZM45.0628 48.6988C48.2697 51.0365 52.2334 52.4391 56.4852 52.4391C60.7371 52.4391 64.6647 51.0365 67.8716 48.6988C64.4845 44.4549 62.5748 39.2041 62.4667 33.7015C62.3586 27.9112 64.2683 22.3726 67.8716 17.877C64.8448 15.6832 61.1695 14.3165 57.1699 14.1727H55.8006C51.801 14.3165 48.1256 15.6832 45.0989 17.877C48.7021 22.3726 50.5759 27.9112 50.5038 33.7015C50.3597 39.2041 48.4499 44.419 45.0628 48.6988ZM24.7043 14.1367C14.2548 14.4964 5.89516 23.2358 6.07532 33.5936C6.25549 43.9514 14.9034 52.4031 25.3889 52.4031C29.6408 52.4031 33.5684 51.0005 36.7753 48.6628C33.3882 44.419 31.4785 39.1681 31.3704 33.6655C31.2623 27.8752 33.172 22.3367 36.7753 17.8411C33.7485 15.6472 30.0732 14.2806 26.0735 14.1367H24.7043ZM72.0154 21.9411C69.5651 25.2138 68.1599 29.2419 68.2319 33.5936C68.304 37.6936 69.7093 41.5058 72.0154 44.5988C74.3215 41.5058 75.7268 37.6936 75.7988 33.5936C75.8709 29.2419 74.4296 25.2138 72.0154 21.9411ZM40.9191 21.9411C38.4688 25.2138 37.0635 29.2419 37.1356 33.5936C37.2077 37.6936 38.613 41.5058 40.9191 44.5988C43.2252 41.5058 44.6304 37.6936 44.7025 33.5936C44.7746 29.2419 43.3693 25.2138 40.9191 21.9411ZM103.076 21.9411C100.625 25.2138 99.2202 29.2419 99.2922 33.5936C99.3643 37.6936 100.77 41.5058 103.076 44.5988C105.382 41.5058 106.787 37.6936 106.859 33.5936C106.967 29.2419 105.526 25.2138 103.076 21.9411Z" fill="#5F5F5F"/>
</svg>
