<svg width="24" height="24" viewBox="0 0 24 24" fill="none" xmlns="http://www.w3.org/2000/svg">
<path d="M20.5122 9.72159L13.0122 2.90597C12.7357 2.65299 12.3745 2.5127 11.9997 2.5127C11.6249 2.5127 11.2637 2.65299 10.9872 2.90597L3.48721 9.72159C3.33365 9.86208 3.21101 10.033 3.12708 10.2234C3.04315 10.4139 2.99978 10.6197 2.99971 10.8278V19.4622C2.99361 19.8404 3.12712 20.2075 3.37471 20.4935C3.51523 20.6533 3.68833 20.7811 3.88238 20.8684C4.07643 20.9558 4.28692 21.0005 4.49971 20.9997H8.99971C9.19862 20.9997 9.38939 20.9207 9.53004 20.78C9.67069 20.6394 9.74971 20.4486 9.74971 20.2497V15.7497C9.74971 15.5508 9.82873 15.36 9.96938 15.2194C10.11 15.0787 10.3008 14.9997 10.4997 14.9997H13.4997C13.6986 14.9997 13.8894 15.0787 14.03 15.2194C14.1707 15.36 14.2497 15.5508 14.2497 15.7497V20.2497C14.2497 20.4486 14.3287 20.6394 14.4694 20.78C14.61 20.9207 14.8008 20.9997 14.9997 20.9997H19.4997C19.7485 21.0019 19.9937 20.9406 20.2122 20.8216C20.45 20.6921 20.6485 20.5011 20.787 20.2685C20.9256 20.036 20.9991 19.7704 20.9997 19.4997V10.8278C20.9996 10.6197 20.9563 10.4139 20.8723 10.2234C20.7884 10.033 20.6658 9.86208 20.5122 9.72159Z" fill="#D5BBFF"/>
</svg>
