<svg width="273" height="49" viewBox="0 0 273 49" fill="none" xmlns="http://www.w3.org/2000/svg">
<path d="M32.293 0.00042671C32.3485 0.00981433 32.404 0.026456 32.4594 0.0273094C33.277 0.0358436 34.0942 0.0469381 34.9117 0.0644332C36.0276 0.088329 37.1426 0.128866 38.2572 0.168977C39.286 0.206101 40.3143 0.26584 41.3414 0.339661C42.7786 0.442925 44.2145 0.556003 45.6482 0.705352C47.3806 0.88585 49.1011 1.12609 50.7883 1.56731C52.4888 2.01236 54.0902 2.67163 55.4766 3.78236C56.8395 4.87431 57.7766 6.26709 58.3795 7.89499C58.8416 9.14269 59.0853 10.4352 59.1945 11.7593C59.3051 13.0979 59.3652 14.4377 59.4087 15.7797C59.4574 17.2792 59.5129 18.7787 59.4796 20.2781C59.4489 21.6769 59.3853 23.0748 59.2837 24.471C59.2154 25.4127 59.1408 26.354 59.0537 27.2937C58.9586 28.3182 58.8344 29.3397 58.7307 30.3638C58.5937 31.7208 58.3919 33.0683 58.161 34.4112C57.7949 36.5417 57.3354 38.6433 56.5255 40.6646C55.3576 43.5782 53.2616 45.4613 50.3348 46.4858C48.8669 46.9995 47.3525 47.3123 45.8206 47.5479C44.4167 47.7638 43.003 47.8888 41.5855 47.9823C40.5861 48.048 39.5872 48.1069 38.5866 48.1512C37.2092 48.2127 35.8317 48.2528 34.4535 48.2852C33.7212 48.3023 32.989 48.3019 32.2572 48.3194C30.9634 48.3501 29.6696 48.3629 28.3754 48.3424C26.9254 48.3198 25.4755 48.2997 24.0259 48.2622C22.9037 48.2336 21.7819 48.1905 20.6609 48.1346C19.5335 48.0783 18.4062 48.0126 17.2805 47.9251C15.0279 47.7501 12.7838 47.509 10.5957 46.9082C9.10134 46.4977 7.65949 45.9656 6.37552 45.0687C4.69428 43.8948 3.6147 42.2818 2.8765 40.3949C2.20955 38.6907 1.80247 36.9236 1.47177 35.1336C1.22001 33.7724 1.01433 32.4035 0.846637 31.0295C0.739959 30.156 0.662725 29.2791 0.573969 28.4035C0.491614 27.5915 0.407126 26.7799 0.332878 25.967C0.279539 25.3803 0.236442 24.7923 0.198038 24.2047C0.0525297 21.9773 -0.00592955 19.7464 0.0004711 17.5147C0.00388478 16.3285 -0.00208916 15.1401 0.0687447 13.9547C0.168168 12.282 0.260337 10.608 0.702836 8.9784C1.15984 7.29631 1.91597 5.77723 3.14191 4.51843C4.15535 3.47726 5.37019 2.74118 6.71134 2.20054C8.19714 1.60144 9.75122 1.26946 11.3249 1.016C12.6499 0.802641 13.9855 0.670361 15.3215 0.55387C16.3823 0.461274 17.4439 0.380625 18.5082 0.323019C20.026 0.241091 21.5429 0.149348 23.0629 0.107104C24.3276 0.072114 25.592 0.0281629 26.8572 0.0277361C26.9485 0.0277361 27.0424 0.0430977 27.1298 0C28.8508 0.00042671 30.5721 0.00042671 32.293 0.00042671ZM29.7067 46.2413C29.7067 46.2409 29.7067 46.2404 29.7067 46.2396C30.8661 46.2396 32.0259 46.2648 33.184 46.2336C34.7607 46.1914 36.3387 46.1683 37.9137 46.0761C38.7786 46.0254 39.6452 46.0015 40.5089 45.9353C41.8603 45.8316 43.2117 45.7228 44.5541 45.524C45.827 45.3358 47.0909 45.1135 48.316 44.7034C50.6522 43.9217 52.3932 42.4679 53.4382 40.2136C53.9908 39.0218 54.3825 37.7771 54.6812 36.5012C55.2112 34.2367 55.5069 31.9354 55.7557 29.626C55.9191 28.1087 56.0544 26.5887 56.1657 25.0671C56.2528 23.8774 56.3189 22.6843 56.336 21.4917C56.3595 19.8642 56.3689 18.2359 56.3198 16.6076C56.2741 15.0876 56.2067 13.5702 56.0493 12.0575C55.9268 10.8811 55.7181 9.72387 55.3034 8.61101C54.6872 6.95793 53.6639 5.63385 52.1547 4.6985C50.7337 3.8182 49.1617 3.37016 47.5347 3.08682C45.7852 2.78215 44.0216 2.59226 42.2533 2.43395C40.8951 2.31277 39.5343 2.23767 38.1744 2.15233C37.2459 2.09429 36.3156 2.05376 35.3858 2.02474C34.1283 1.98548 32.8704 1.9539 31.6129 1.9394C30.8025 1.93001 29.9922 1.93385 29.1815 1.95433C27.8454 1.98804 26.5081 1.96841 25.1721 2.01535C24.483 2.03967 23.7934 2.04309 23.1043 2.06613C22.4582 2.08789 21.8122 2.11605 21.167 2.15489C20.1041 2.21804 19.0411 2.28674 17.979 2.36355C17.2925 2.41304 16.6063 2.47193 15.9214 2.54447C14.9264 2.64987 13.9326 2.76465 12.943 2.91272C11.6565 3.10517 10.3798 3.33389 9.14572 3.76486C6.32175 4.75142 4.52573 6.67289 3.79734 9.58561C3.4214 11.0893 3.30747 12.6251 3.20933 14.1625C3.14362 15.1904 3.0954 16.2205 3.0843 17.2502C3.06382 19.1482 3.05955 21.0458 3.14788 22.9433C3.20165 24.0997 3.27888 25.254 3.36764 26.4082C3.46237 27.6397 3.57502 28.8691 3.70858 30.0971C3.88311 31.6994 4.09603 33.2962 4.39985 34.8793C4.73567 36.6271 5.16409 38.3476 5.89334 39.981C6.64221 41.6584 7.74355 43.0222 9.36633 43.9294C10.5202 44.5746 11.7657 44.9586 13.054 45.2176C15.0066 45.6102 16.9857 45.7932 18.9682 45.9392C19.9739 46.013 20.9809 46.0697 21.9884 46.1086C23.4443 46.1649 24.9007 46.2106 26.3571 46.237C27.4733 46.2575 28.5905 46.2413 29.7067 46.2413Z" fill="#5F5F5F"/>
<path d="M74.3664 13.5166C74.5332 13.5085 74.7001 13.4936 74.8669 13.4936C80.5306 13.4923 86.1939 13.4923 91.8577 13.4927C92.4572 13.4927 92.458 13.4936 92.4585 14.0824C92.4593 14.7903 92.4504 15.4983 92.4623 16.2062C92.467 16.4908 92.3765 16.6162 92.0736 16.6452C91.2428 16.725 90.4175 16.859 89.5863 16.9346C88.5076 17.0327 87.958 17.5691 87.9196 18.7199C87.882 19.8383 87.9144 20.9593 87.9059 22.079C87.9038 22.3559 88.0557 22.3918 88.2754 22.3905C88.9833 22.3862 89.6913 22.3892 90.3992 22.3892C93.9904 22.3892 97.5815 22.3896 101.173 22.3888C101.687 22.3888 101.689 22.3866 101.689 21.8784C101.689 20.836 101.696 19.7931 101.685 18.7506C101.674 17.6015 101.128 17.0434 99.9784 16.932C99.1092 16.8479 98.2438 16.7233 97.3754 16.6278C97.16 16.6039 97.084 16.4869 97.0836 16.2971C97.081 15.4603 97.0823 14.6239 97.0831 13.7871C97.0836 13.5806 97.1864 13.4808 97.3964 13.4923C97.486 13.4974 97.5764 13.4914 97.6665 13.4914C103.304 13.4914 108.942 13.4914 114.58 13.4914C115.17 13.4914 115.17 13.4923 115.171 14.0884C115.171 14.7835 115.162 15.4786 115.174 16.1737C115.179 16.4618 115.116 16.6128 114.781 16.6465C113.823 16.7425 112.867 16.8603 111.916 17.0088C111.227 17.1163 110.822 17.549 110.706 18.2377C110.653 18.5535 110.614 18.8718 110.615 19.1965C110.62 22.9038 110.62 26.6106 110.615 30.3179C110.614 30.6426 110.652 30.9614 110.708 31.2763C110.849 32.0734 111.393 32.4873 112.302 32.5739C113.158 32.6554 114.01 32.7817 114.865 32.8747C115.098 32.8999 115.172 33.0113 115.171 33.2263C115.167 34.0503 115.166 34.8739 115.171 35.6978C115.172 35.9287 115.068 36.0277 114.843 36.0166C114.753 36.0123 114.663 36.0175 114.573 36.0175C108.935 36.0175 103.297 36.0175 97.6592 36.0175C97.0802 36.0175 97.0789 36.0166 97.0776 35.4448C97.0763 34.7497 97.0827 34.0546 97.0755 33.3595C97.0721 33.0625 97.1382 32.8961 97.4936 32.8628C98.4136 32.7766 99.3332 32.6652 100.246 32.5176C101.099 32.3793 101.575 31.8459 101.598 30.9895C101.629 29.8063 101.607 28.6213 101.614 27.4372C101.615 27.2029 101.513 27.1133 101.288 27.1197C101.031 27.127 100.773 27.1201 100.516 27.1201C96.4994 27.1201 92.4836 27.1201 88.4675 27.1201C87.9076 27.1201 87.9072 27.121 87.9068 27.6616C87.9063 28.6268 87.9106 29.5925 87.9042 30.5577C87.9025 30.844 87.9464 31.1235 88.0117 31.3975C88.1824 32.1118 88.6992 32.4843 89.5466 32.5713C90.4026 32.6588 91.2543 32.783 92.1103 32.87C92.3787 32.8974 92.4606 33.0164 92.4585 33.2652C92.4516 34.0503 92.4474 34.8355 92.4602 35.6206C92.4653 35.9244 92.3445 36.026 92.0484 36.0213C91.2376 36.0085 90.4265 36.0175 89.6157 36.0175C84.7243 36.0175 79.833 36.0179 74.942 36.0166C74.7496 36.0166 74.5567 36.0017 74.3643 35.9936C74.3643 34.9635 74.3643 33.9338 74.3643 32.9038C75.434 32.774 76.5051 32.655 77.5727 32.5103C78.3007 32.4113 78.6971 31.9573 78.8362 31.2468C78.8861 30.9917 78.8993 30.7382 78.8993 30.4809C78.8993 27.7171 78.8998 24.9533 78.8993 22.1899C78.8993 21.0331 78.9109 19.8759 78.8929 18.7195C78.8763 17.645 78.3668 17.0724 77.347 16.9482C76.3536 16.8275 75.3585 16.7195 74.3643 16.606C74.3664 15.5763 74.3664 14.5463 74.3664 13.5166Z" fill="#5F5F5F"/>
<path d="M131.757 36.6887C131.068 36.6191 130.378 36.5607 129.691 36.4779C126.705 36.1177 123.811 35.4427 121.209 33.8545C118.262 32.0559 116.462 29.4679 116.085 26.009C115.712 22.5863 116.621 19.5537 119.148 17.1168C120.688 15.6314 122.554 14.6879 124.572 14.0334C126.549 13.3916 128.583 13.0532 130.652 12.8599C132.49 12.6884 134.329 12.6734 136.165 12.7379C139.497 12.8548 142.777 13.3071 145.864 14.667C148.359 15.7658 150.42 17.3732 151.663 19.8665C152.567 21.6804 152.897 23.6083 152.731 25.6318C152.354 30.2023 149.749 33.0723 145.713 34.8368C143.575 35.7717 141.312 36.2432 138.999 36.4856C138.336 36.5551 137.672 36.6213 137.009 36.6891C135.258 36.6887 133.507 36.6887 131.757 36.6887ZM142.316 24.6986C142.344 24.0226 142.272 23.2815 142.158 22.5441C141.756 19.945 140.395 18.1545 137.778 17.4987C135.6 16.9529 133.4 16.9516 131.211 17.4556C128.705 18.0325 127.212 19.619 126.705 22.1238C126.342 23.9202 126.351 25.7244 126.733 27.5204C127.239 29.9006 128.659 31.4325 131.029 32.0149C133.288 32.5701 135.567 32.5714 137.821 31.9974C140.085 31.4214 141.481 29.9586 142.012 27.6761C142.235 26.7195 142.333 25.7512 142.316 24.6986Z" fill="#5F5F5F"/>
<path d="M272.104 35.9163C271.95 35.9245 271.796 35.9402 271.642 35.9402C265.554 35.9415 259.466 35.9415 253.377 35.9411C252.771 35.9411 252.77 35.9402 252.77 35.3236C252.77 34.6157 252.778 33.9078 252.767 33.1999C252.763 32.9243 252.864 32.8214 253.143 32.7937C253.974 32.7118 254.802 32.5982 255.63 32.4971C255.85 32.4702 256.059 32.4079 256.255 32.3094C256.818 32.0269 256.994 31.5695 256.725 30.9977C256.434 30.3776 255.998 29.8455 255.626 29.2746C255.496 29.0749 255.281 29.1346 255.095 29.1342C251.955 29.1312 248.813 29.1321 245.673 29.1321C244.502 29.1321 243.33 29.1389 242.159 29.1274C241.885 29.1248 241.703 29.2038 241.562 29.4487C241.26 29.9723 240.926 30.4775 240.618 30.9981C240.252 31.6164 240.429 32.1459 241.087 32.4502C241.631 32.7011 242.226 32.62 242.793 32.7186C243.058 32.7647 243.329 32.7711 243.598 32.7967C244.165 32.8509 244.165 32.8513 244.166 33.4333C244.166 34.0896 244.167 34.7463 244.165 35.4026C244.164 35.9385 244.163 35.9407 243.634 35.9407C240.185 35.9415 236.735 35.9411 233.285 35.9411C232.255 35.9411 231.225 35.9304 230.196 35.9471C229.86 35.9526 229.74 35.843 229.749 35.5037C229.768 34.7446 229.763 33.9851 229.751 33.2255C229.746 32.9383 229.84 32.8201 230.142 32.7915C230.999 32.7105 231.852 32.5948 232.706 32.489C233.443 32.3977 233.942 31.9697 234.319 31.3578C235.656 29.1888 236.998 27.0224 238.338 24.8556C239.536 22.9183 240.736 20.9819 241.932 19.0438C242.094 18.7822 242.265 18.5258 242.275 18.1968C242.296 17.5635 241.884 17.0844 241.252 17.0182C240.038 16.8915 238.825 16.7515 237.611 16.6384C237.325 16.612 237.237 16.4998 237.241 16.2292C237.251 15.4701 237.259 14.7101 237.238 13.951C237.228 13.5986 237.346 13.4838 237.701 13.4855C240.121 13.4979 242.54 13.4919 244.96 13.4919C247.998 13.4919 251.036 13.5141 254.074 13.4799C255.166 13.4676 255.938 13.8964 256.522 14.7916C259.102 18.7477 261.694 22.6964 264.281 26.6478C265.296 28.1984 266.314 29.7465 267.322 31.3023C267.854 32.1242 268.604 32.518 269.574 32.5782C270.419 32.6307 271.261 32.7412 272.105 32.8261C272.104 33.8566 272.104 34.8867 272.104 35.9163ZM248.517 25.0771C249.816 25.0771 251.115 25.0779 252.415 25.0749C252.511 25.0745 252.642 25.1244 252.697 25.016C252.751 24.9115 252.643 24.8283 252.589 24.7464C251.249 22.7028 249.905 20.6623 248.568 18.6162C248.414 18.3798 248.335 18.3299 248.164 18.612C246.92 20.6559 245.662 22.6909 244.411 24.7293C244.214 25.0502 244.228 25.0758 244.619 25.0762C245.918 25.0783 247.217 25.0771 248.517 25.0771Z" fill="#5F5F5F"/>
<path d="M183.251 29.9932C183.251 26.9494 183.258 24.0149 183.247 21.0809C183.243 20.1946 183.324 19.3049 183.19 18.4216C183.043 17.4517 182.582 17.037 181.613 16.938C180.757 16.8505 179.905 16.7259 179.048 16.6393C178.78 16.612 178.69 16.4997 178.705 16.2463C178.758 15.3997 178.806 14.5527 178.85 13.7052C178.859 13.5175 178.935 13.4168 179.129 13.4197C179.232 13.421 179.336 13.4168 179.438 13.4168C183.854 13.4168 188.269 13.4163 192.684 13.4168C193.26 13.4168 193.261 13.418 193.262 13.9894C193.263 14.7101 193.254 15.4313 193.265 16.152C193.269 16.4199 193.183 16.5386 192.898 16.5676C192.119 16.6465 191.345 16.7775 190.565 16.8526C189.238 16.9802 188.747 17.4893 188.711 18.8279C188.707 18.9695 188.71 19.1112 188.71 19.2524C188.71 24.62 188.71 29.9876 188.71 35.3552C188.71 35.9398 188.709 35.9411 188.113 35.9411C184.612 35.9411 181.111 35.9283 177.61 35.9479C176.586 35.9539 175.836 35.5788 175.211 34.751C171.468 29.7879 167.696 24.8475 163.933 19.8998C163.85 19.7909 163.76 19.6877 163.664 19.5703C163.574 19.7129 163.613 19.8439 163.613 19.9663C163.61 23.3386 163.609 26.7113 163.614 30.0836C163.615 30.4557 163.642 30.8299 163.688 31.1995C163.791 32.0145 164.347 32.4783 165.256 32.5713C166.112 32.6588 166.964 32.7838 167.82 32.87C168.092 32.8973 168.165 33.0198 168.163 33.2669C168.155 34.0392 168.146 34.812 168.166 35.5835C168.175 35.9278 168.047 36.0243 167.716 36.0226C165.515 36.0119 163.314 36.017 161.113 36.017C158.796 36.017 156.479 36.0106 154.162 36.0234C153.802 36.0256 153.655 35.9261 153.668 35.5459C153.692 34.8 153.682 34.0529 153.671 33.3066C153.667 33.0258 153.749 32.8944 154.056 32.8653C154.887 32.7868 155.713 32.6563 156.543 32.5748C157.682 32.463 158.214 31.8762 158.222 30.6371C158.233 28.9123 158.225 27.1875 158.225 25.4624C158.225 23.3514 158.225 21.2405 158.225 19.1291C158.225 19.0003 158.229 18.8714 158.222 18.7429C158.152 17.5456 157.637 17.0361 156.455 16.929C155.623 16.8539 154.797 16.7259 153.967 16.6312C153.757 16.6073 153.675 16.5057 153.676 16.3056C153.678 15.4688 153.678 14.6325 153.677 13.7957C153.676 13.5879 153.771 13.4867 153.982 13.4931C154.085 13.4965 154.188 13.4919 154.291 13.4919C159.182 13.4919 164.073 13.4919 168.965 13.4919C169.171 13.4919 169.377 13.4893 169.583 13.497C170.371 13.5251 170.998 13.8144 171.494 14.4733C175.295 19.5213 179.116 24.5547 182.931 29.5925C183.014 29.7034 183.103 29.8092 183.251 29.9932Z" fill="#5F5F5F"/>
<path d="M207.41 35.9411C202.732 35.9411 198.871 35.9415 195.008 35.9406C194.456 35.9406 194.455 35.9389 194.454 35.3863C194.453 34.6656 194.463 33.9445 194.45 33.2238C194.445 32.9353 194.541 32.8227 194.842 32.7911C195.8 32.6908 196.758 32.5769 197.708 32.425C198.404 32.314 198.808 31.8809 198.918 31.1961C198.973 30.8547 199.003 30.5052 199.004 30.1592C199.01 26.4515 199.006 22.7442 199.011 19.0365C199.011 18.7122 198.977 18.3926 198.922 18.0773C198.827 17.5341 198.501 17.1795 197.97 17.0199C197.262 16.807 196.523 16.8125 195.799 16.7118C194.523 16.5347 194.791 16.7993 194.763 15.5968C194.749 15.0178 194.768 14.4383 194.758 13.8588C194.753 13.5994 194.842 13.468 195.113 13.4923C195.177 13.4983 195.242 13.4923 195.306 13.4923C202.721 13.4927 210.137 13.4773 217.552 13.503C220.207 13.5123 222.807 13.9198 225.269 14.9755C227.853 16.0837 229.862 17.8046 230.908 20.4873C231.583 22.2202 231.761 24.0205 231.593 25.8699C231.446 27.4858 231.012 29.0019 230.161 30.3874C229.112 32.0964 227.619 33.3117 225.835 34.1779C223.675 35.2259 221.371 35.7367 218.987 35.8574C214.858 36.0661 210.725 35.8728 207.41 35.9411ZM207.784 24.7532C207.784 26.8504 207.784 28.9477 207.784 31.0454C207.784 31.5882 207.785 31.5903 208.307 31.5903C210.598 31.5912 212.888 31.5946 215.179 31.5873C215.718 31.5856 216.256 31.5788 216.795 31.505C219.042 31.1986 220.364 30.0538 220.879 27.8455C221.328 25.9181 221.298 23.968 220.971 22.0243C220.788 20.9375 220.387 19.9437 219.556 19.1735C218.617 18.3026 217.451 17.9766 216.224 17.9531C213.574 17.9032 210.923 17.9331 208.272 17.9104C207.873 17.907 207.773 18.0402 207.776 18.4221C207.793 20.5326 207.784 22.6431 207.784 24.7532Z" fill="#5F5F5F"/>
<path d="M15.5451 4.0872C16.1207 4.08805 16.017 4.0138 16.1301 4.53482C17.3697 10.2468 18.6481 15.9497 20.1036 21.6113C20.4894 23.1121 20.9156 24.6004 21.551 26.0205C22.515 28.1771 24.1493 29.4538 26.4889 29.8182C27.1563 29.9224 27.8271 29.9689 28.5021 29.9983C29.4695 30.0406 30.4364 30.0239 31.4008 29.9765C32.5243 29.9211 33.635 29.7649 34.677 29.2938C35.9013 28.7399 36.8153 27.8566 37.46 26.6879C38.1133 25.5033 38.5341 24.2266 38.8899 22.9307C39.9055 19.232 40.8276 15.5098 41.6644 11.7663C42.2157 9.29946 42.7538 6.82966 43.2902 4.35944C43.3367 4.14566 43.4216 4.07141 43.6444 4.0808C44.872 4.13072 46.0992 4.18022 47.3192 4.3381C47.4587 4.35603 47.5018 4.41918 47.4937 4.54719C47.4455 5.28412 47.3994 6.02105 47.3508 6.75798C47.3162 7.28198 47.2765 7.80598 47.2419 8.32998C47.1711 9.40656 47.1016 10.4836 47.0337 11.5606C46.9868 12.3048 46.9458 13.049 46.8976 13.7931C46.8323 14.8062 46.7619 15.8192 46.6953 16.8322C46.6484 17.5405 46.6053 18.2493 46.5579 18.9576C46.4901 19.9775 46.4201 20.9973 46.3523 22.0175C46.3066 22.7046 46.2635 23.392 46.2174 24.079C46.1491 25.0988 46.0787 26.1187 46.01 27.1385C45.9639 27.8255 45.9221 28.5129 45.8731 29.1999C45.8082 30.1063 45.7361 31.0117 45.6699 31.9181C45.6222 32.5765 45.5816 33.2353 45.5325 33.8937C45.4681 34.7642 45.3977 35.6347 45.3311 36.5052C45.2842 37.1209 45.2407 37.7371 45.1925 38.3529C45.1263 39.202 45.0576 40.0507 44.9893 40.8999C44.9292 41.65 44.8694 42.3998 44.8088 43.1499C44.782 43.4823 44.7461 43.8143 44.7278 44.1472C44.7197 44.2931 44.6578 44.34 44.5195 44.3528C43.8415 44.416 43.1652 44.5069 42.4858 44.5513C41.3521 44.6255 40.2166 44.6746 39.082 44.7279C38.7551 44.7433 38.7564 44.733 38.6749 44.416C38.0988 42.1732 37.5633 39.9193 36.8038 37.7282C36.5874 37.103 36.3344 36.4937 36.0523 35.8946C35.4558 34.6281 34.4607 33.9198 33.0927 33.6821C31.6709 33.4355 30.2397 33.3685 28.8034 33.4355C27.8471 33.4798 26.8892 33.5498 25.9517 33.7679C24.8307 34.0286 24.0101 34.6789 23.4802 35.6966C22.8922 36.8248 22.5145 38.0328 22.1505 39.2447C21.6334 40.9665 21.2084 42.713 20.7556 44.4523C20.6967 44.6793 20.6007 44.7445 20.3767 44.7343C19.2912 44.6848 18.206 44.634 17.1213 44.5713C16.3695 44.5278 15.6215 44.4569 14.8751 44.358C14.7117 44.3362 14.6665 44.2688 14.6545 44.1143C14.579 43.138 14.4902 42.1625 14.4126 41.1862C14.3469 40.3652 14.2927 39.5438 14.2287 38.7228C14.1502 37.7111 14.064 36.6998 13.9863 35.6876C13.9347 35.0151 13.8946 34.3418 13.8451 33.6693C13.7802 32.7843 13.7098 31.9002 13.6454 31.0152C13.5959 30.3354 13.5532 29.6552 13.505 28.9755C13.4393 28.0478 13.3693 27.1206 13.3053 26.1933C13.2549 25.4637 13.2122 24.7336 13.1636 24.0039C13.0983 23.0267 13.0283 22.0496 12.9635 21.072C12.9136 20.321 12.8709 19.5695 12.8218 18.8185C12.7569 17.8341 12.6878 16.8497 12.6225 15.8652C12.588 15.3481 12.5585 14.8305 12.5248 14.3133C12.4578 13.2862 12.3883 12.2591 12.3226 11.232C12.2735 10.4597 12.2312 9.68691 12.1817 8.91457C12.1169 7.90156 12.0478 6.88855 11.9812 5.87554C11.9517 5.4292 11.9261 4.98244 11.8941 4.53652C11.8839 4.39614 11.9471 4.35133 12.0781 4.33896C12.5939 4.28989 13.1077 4.21862 13.624 4.18235C14.2684 4.13584 14.9148 4.11664 15.5451 4.0872Z" fill="#5F5F5F"/>
</svg>
