<svg width="225" height="67" viewBox="0 0 225 67" fill="none" xmlns="http://www.w3.org/2000/svg">
<rect width="224.133" height="66.5394" transform="translate(0.112305 0.000244141)" fill="white"/>
<path d="M213.893 35.7583L215.2 35.6529C215.736 35.6107 216.272 35.5474 216.765 35.4841C218.051 35.2942 219.144 34.9567 220.044 34.4926C220.387 34.3239 220.558 34.1973 220.944 33.9231C222.08 33.1215 222.659 32.0456 222.745 30.569C222.766 30.2737 222.745 30.0416 222.723 29.7885C222.659 28.8603 222.445 28.0798 222.059 27.4681C221.609 26.7297 220.966 26.1602 220.108 25.7383C219.251 25.3164 218.158 25 216.893 24.8101C216.893 24.8101 215.029 24.5148 212.264 24.5148H191.13V42.0446H197.774V35.8849H206.798L216.958 42.0657H224.245L213.893 35.7583ZM210.87 26.561C210.913 26.561 210.935 26.561 210.978 26.561C211.728 26.5821 212.371 26.6032 212.928 26.6664C213.635 26.7508 214.235 26.8985 214.707 27.1516C215.2 27.4048 215.586 27.7845 215.779 28.2486C215.972 28.6494 216.057 29.1556 216.079 29.7674C216.079 29.8096 216.1 30.6534 216.057 31.0753C216.036 31.4972 215.929 31.9613 215.779 32.2777C215.629 32.6152 215.414 32.8894 215.114 33.1215C215.029 33.1848 214.943 33.248 214.857 33.2902C214.428 33.5223 213.893 33.6699 213.207 33.7543C212.585 33.8176 211.792 33.8598 210.849 33.8598H197.731V26.561H210.87Z" fill="#5F5F5F"/>
<path d="M21.9319 24.5358V32.7839C21.9319 35.252 21.0102 37.0873 19.1883 38.2264C17.6237 39.2178 15.3517 39.7241 12.4581 39.7241H0.112305V42.0656H10.3576C13.2083 42.0656 15.8232 41.9602 18.1167 41.7492C20.3672 41.5383 22.2748 41.1164 23.818 40.4835C25.3184 39.8718 26.4973 38.9858 27.3117 37.8467C28.0405 36.813 28.4477 35.463 28.5335 33.7965C28.5335 33.6488 28.5549 33.4589 28.5549 33.248V24.5358H21.9319Z" fill="#5F5F5F"/>
<path d="M98.001 34.0286V39.7242H87.8629C82.5473 39.7242 79.4608 38.0367 78.6249 34.7459C78.282 33.3747 78.4963 32.0668 78.6249 31.5816C79.4394 28.2486 82.483 26.6243 87.8629 26.6243H103.724V24.5359H89.9419C87.0484 24.5359 84.4335 24.6414 82.1401 24.8313C79.9109 25.0211 77.9819 25.443 76.4387 26.0548C74.9169 26.6665 73.7595 27.5314 72.9664 28.6705C72.1948 29.7464 71.809 31.2019 71.7661 32.995C71.7661 33.0372 71.7661 33.0794 71.7661 33.1426C71.7661 33.227 71.7661 33.3114 71.7661 33.4169C71.7875 35.2732 72.1948 36.771 72.9878 37.8679C73.8023 39.007 74.9812 39.893 76.4815 40.5048C78.0248 41.1376 79.9538 41.5595 82.1829 41.7704C84.4763 41.9814 87.0698 42.0869 89.9419 42.0869H104.624V34.0286H98.001Z" fill="#5F5F5F"/>
<path d="M53.7177 24.5359H46.8803L31.5552 42.0658H35.5204L38.9713 38.121H58.2402L61.691 42.0658H69.0643L53.7177 24.5359ZM48.595 27.1095L56.5898 36.2436H40.6217L48.595 27.1095Z" fill="#5F5F5F"/>
<path d="M163.03 24.5359L147.705 42.0658H151.67L155.121 38.0999H174.368L177.819 42.0658H185.214L169.889 24.5359H163.03ZM172.761 36.2436H156.771L164.766 27.1095L172.761 36.2436Z" fill="#5F5F5F"/>
<path d="M138.081 24.5359V33.4169C138.081 34.1763 137.974 34.8724 137.824 35.5053C136.967 38.7328 133.902 40.3782 128.629 40.3993H127.964C122.67 40.3993 119.584 38.7117 118.748 35.442C118.598 34.8302 118.512 34.1552 118.512 33.438V24.5359H111.868V33.6911C111.868 35.5897 112.275 37.1507 113.089 38.2898C113.604 38.9859 114.247 39.6188 115.018 40.125C115.49 40.4204 116.004 40.6946 116.583 40.9266C117.162 41.1587 117.783 41.3696 118.469 41.5384C119.605 41.8337 120.891 42.0447 122.306 42.1923C124.085 42.3611 126.1 42.4666 128.286 42.4666C130.494 42.4666 132.487 42.3611 134.266 42.1923C135.659 42.0658 136.945 41.8548 138.081 41.5595C138.767 41.3907 139.389 41.1798 139.967 40.9477C140.546 40.7157 141.06 40.4626 141.532 40.1461C142.325 39.6399 142.968 39.0281 143.461 38.3109C144.276 37.1718 144.683 35.6107 144.683 33.7122V24.5359H138.081Z" fill="#5F5F5F"/>
</svg>
