<svg width="20" height="20" viewBox="0 0 20 20" fill="none" xmlns="http://www.w3.org/2000/svg">
<path fill-rule="evenodd" clip-rule="evenodd" d="M9.64338 11.0718V0.353778C9.64338 0.158222 9.8031 0 10 0C10.1969 0 10.3566 0.158222 10.3566 0.353778V11.0718C10.3566 11.2669 10.1969 11.4256 10 11.4256C9.8031 11.4256 9.64338 11.2669 9.64338 11.0718ZM5.98643 3.46733C6.08522 3.63644 6.02698 3.85289 5.85651 3.95067C4.59893 4.67222 3.54922 5.71378 2.82186 6.96133C2.09652 8.20467 1.71324 9.626 1.71324 11.0718C1.71324 15.6049 5.43067 19.2924 10 19.2924C14.5693 19.2924 18.2868 15.6047 18.2868 11.0718C18.2868 9.626 17.9035 8.20467 17.1781 6.96133C16.451 5.71378 15.4013 4.67267 14.1435 3.95067C13.973 3.85267 13.9148 3.63644 14.0136 3.46733C14.1121 3.29822 14.3305 3.24089 14.5006 3.33844C15.8663 4.12222 17.0057 5.25244 17.7955 6.60711C18.5836 7.958 19 9.50178 19 11.0718C19 15.9947 14.9625 20 10 20C5.03753 20 1 15.9947 1 11.0718C1 9.50178 1.41643 7.958 2.2045 6.60711C2.99457 5.25222 4.13388 4.12222 5.49944 3.33844C5.66991 3.24067 5.88832 3.29822 5.98643 3.46733Z" fill="white"/>
</svg>
