<svg width="80" height="67" viewBox="0 0 80 67" fill="none" xmlns="http://www.w3.org/2000/svg">
<rect width="78.7967" height="66.5394" transform="translate(0.245117 0.000244141)" fill="white"/>
<path d="M11.4297 23.0479C15.5292 11.1627 26.8629 3.13216 39.6434 3.13216C52.424 3.13216 63.7577 11.1627 67.8572 23.0479V23.1282H76.8598V22.0843L73.1623 21.6827C70.8313 21.4418 70.349 20.3979 69.7059 19.113L69.5452 18.7917C64.1596 7.38836 52.424 0.000244141 39.6434 0.000244141C26.8629 0.000244141 15.1273 7.38836 9.66135 18.7917L9.50058 19.113C8.93792 20.3979 8.37525 21.4418 6.12458 21.6827L2.34668 22.0843V23.1282H11.3493L11.4297 23.0479Z" fill="#5F5F5F"/>
<path d="M67.9375 42.8835V42.9638C63.7577 54.849 52.424 62.8796 39.6434 62.8796C26.8629 62.8796 15.5292 54.849 11.4297 42.9638V42.8835H2.34668V43.9275L6.12458 44.329C8.45563 44.5699 8.93792 45.6139 9.58097 46.8988L9.74173 47.22C15.0469 58.6234 26.8629 66.0115 39.6434 66.0115C52.424 66.0115 64.1596 58.6234 69.6255 47.22L69.7863 46.8988C70.4293 45.6139 70.9116 44.6502 73.2427 44.329L77.0206 43.9275V42.8835H67.9375Z" fill="#5F5F5F"/>
<path d="M18.5035 28.8299H16.4136V37.9847H18.5035V28.8299Z" fill="#5F5F5F"/>
<path d="M11.5102 37.9044V28.8299H9.50065V35.6559L2.82903 28.8299H0.256836V37.9044H2.26636V31.0785L9.01836 37.9044H11.5102Z" fill="#5F5F5F"/>
<path d="M57.2468 28.8299L51.6201 37.9847H54.0315L54.9961 36.3786H61.507L62.4715 37.9847H64.883L59.2563 28.8299H57.2468ZM60.5424 34.6119H56.0411L58.2917 30.9178L60.5424 34.6119Z" fill="#5F5F5F"/>
<path d="M45.9131 36.0575C45.8327 36.0575 45.5916 36.0575 45.5112 36.0575H37.0712V37.9045H45.5916C45.672 37.9045 46.1543 37.9045 46.2347 37.9045C48.003 37.7439 48.7265 36.3787 48.7265 35.0938C48.7265 33.8089 47.9226 32.5241 46.315 32.3634C46.0739 32.3634 45.8327 32.3634 45.672 32.3634H40.1257C39.8846 32.3634 39.7238 32.3634 39.4826 32.2831C39.0807 32.2028 38.8396 31.8816 38.92 31.4801C38.92 31.0786 39.1611 30.7573 39.563 30.677C39.7238 30.5967 39.9649 30.5967 40.1257 30.5967H48.1638V28.7497H40.0453C39.8042 28.7497 39.4826 28.7497 39.2415 28.83C37.875 28.9906 36.8301 30.1149 36.8301 31.4801C36.8301 32.6044 37.5535 33.9696 39.1611 34.1302C39.4827 34.1302 39.7238 34.2105 40.0453 34.1302H45.4308C45.5112 34.1302 45.7524 34.1302 45.8327 34.1302C46.315 34.2105 46.6366 34.612 46.6366 35.0135C46.6366 35.5757 46.315 35.9772 45.9131 36.0575Z" fill="#5F5F5F"/>
<path d="M31.1231 36.0574C31.0427 36.0574 30.8016 36.0574 30.7212 36.0574H22.3616V37.9044H30.8016C30.8819 37.9044 31.3642 37.9044 31.4446 37.9044C33.213 37.7438 34.0168 36.3786 34.0168 35.174C34.0168 33.9695 33.213 32.6043 31.6054 32.4436C31.3642 32.4436 31.1231 32.4436 30.9623 32.4436H25.416C25.1749 32.4436 25.0141 32.4436 24.773 32.3633C24.3711 32.283 24.1299 31.9618 24.2103 31.5603C24.2103 31.1588 24.4515 30.8375 24.8534 30.7572C25.0141 30.6769 25.2553 30.6769 25.416 30.6769H33.4541V28.8299H25.2553C25.0141 28.8299 24.6926 28.8299 24.4515 28.9102C23.085 29.0708 22.04 30.1951 22.04 31.5603C22.04 32.6846 22.7635 34.0498 24.3711 34.2104C24.6926 34.2104 24.9338 34.2907 25.2553 34.2104H30.6408C30.7212 34.2104 30.9623 34.2104 31.0427 34.2104C31.525 34.2907 31.8465 34.6922 31.8465 35.0937C31.9269 35.5756 31.525 35.9771 31.1231 36.0574Z" fill="#5F5F5F"/>
<path d="M79.0302 37.9044V28.8299H77.0207V35.6559L70.349 28.8299H67.7769V37.9044H69.7864V31.0785L76.5384 37.9044H79.0302Z" fill="#5F5F5F"/>
<path d="M73.8055 60.4704C74.7701 60.4704 75.5739 61.2735 75.5739 62.2371C75.5739 63.2008 74.7701 64.0038 73.8055 64.0038C72.8409 64.0038 72.0371 63.2008 72.0371 62.2371C72.0371 61.7553 72.1979 61.3538 72.5998 60.9522C72.8409 60.631 73.3232 60.3901 73.8055 60.4704ZM73.8055 63.6023C74.2074 63.6023 74.5289 63.4417 74.7701 63.2008C75.0112 62.9599 75.172 62.5583 75.172 62.2371C75.172 61.5144 74.5289 60.8719 73.8055 60.9522C73.0821 60.9522 72.439 61.5947 72.439 62.3174C72.439 62.9599 73.0017 63.6023 73.8055 63.6023ZM73.0821 63.1205V61.3538C73.3232 61.3538 73.484 61.2735 73.7251 61.2735C74.0466 61.2735 74.5289 61.3538 74.5289 61.7553C74.5289 61.9962 74.3682 62.1568 74.127 62.1568C74.2878 62.2371 74.3682 62.3977 74.4485 62.5583C74.4485 62.719 74.5289 62.8796 74.6093 62.9599H74.2074C74.127 62.7993 74.127 62.6387 74.0466 62.5583C73.9663 62.3174 73.8055 62.3174 73.484 62.3174V63.0402L73.0821 63.1205ZM73.484 62.0765C73.8055 62.0765 74.127 62.0765 74.127 61.8356C74.127 61.675 74.0466 61.5947 73.7251 61.5947C73.6447 61.5947 73.5643 61.5947 73.484 61.5947V62.0765Z" fill="#5F5F5F"/>
</svg>
