<svg width="225" height="18" viewBox="0 0 225 18" fill="none" xmlns="http://www.w3.org/2000/svg">
<g clip-path="url(#clip0_12_535)">
<path d="M3.84245 3.12764L11.5614 16.935L20.4842 16.9583L28.0615 3.12764H31.862V0.612976H20.437V3.12764H23.7418L18.2181 13.1863L12.6236 3.12764H16.6366V0.612976H0.0419922V3.12764H3.84245Z" fill="#5F5F5F"/>
<path d="M102.111 3.12767V0.636292H117.408V3.12767H113.607V14.4204H117.148C120.429 14.4204 122.577 12.2782 122.577 9.39103H125.103V16.9583H102.135V14.3971H105.983V3.10438H102.111V3.12767Z" fill="#5F5F5F"/>
<path d="M65.0274 0.263733C57.3557 0.263733 53.272 4.03572 53.272 8.78564C53.272 13.5821 57.1905 17.424 65.0746 17.424C72.9588 17.424 76.8301 13.5821 76.8301 8.78564C76.8301 4.05901 72.7228 0.263733 65.0274 0.263733ZM64.9566 14.8395C62.1476 14.7929 60.9201 11.7427 60.9673 8.6925C61.0145 5.54918 62.5489 2.80168 65.1691 2.84824C67.7893 2.89481 69.182 5.68888 69.1348 8.83221C69.0876 11.7893 67.8365 14.886 64.9566 14.8395Z" fill="#5F5F5F"/>
<path d="M151.163 3.12764L158.882 16.935L167.805 16.9583L175.382 3.12764H179.183V0.612976H167.758V3.12764H171.063L165.539 13.1863L159.944 3.12764H163.957V0.612976H147.363V3.12764H151.163Z" fill="#5F5F5F"/>
<path d="M212.349 0.263733C204.677 0.263733 200.593 4.03572 200.593 8.78564C200.593 13.5821 204.512 17.424 212.396 17.424C220.28 17.424 224.151 13.5821 224.151 8.78564C224.151 4.05901 220.044 0.263733 212.349 0.263733ZM212.278 14.8395C209.469 14.7929 208.241 11.7427 208.289 8.6925C208.336 5.54918 209.87 2.80168 212.49 2.84824C215.111 2.89481 216.503 5.68888 216.456 8.83221C216.409 11.7893 215.158 14.886 212.278 14.8395Z" fill="#5F5F5F"/>
</g>
<defs>
<clipPath id="clip0_12_535">
<rect width="224.133" height="17.1835" fill="white" transform="translate(0.0419922 0.240417)"/>
</clipPath>
</defs>
</svg>
